<svg width="1426" height="310" viewBox="0 0 1426 310" fill="none" xmlns="http://www.w3.org/2000/svg">
<path d="M300 305.5L260.5 254L222.727 284.154L226 294.5L232.206 301.149C232.725 301.705 233.391 302.101 234.126 302.292L246.5 305.5H300Z" fill="#14B8A6" stroke="#14B8A6"/>
<path d="M194.9 200.25V223.7H105.65L101.45 209C106.933 204.1 110.958 198.908 113.525 193.425C116.092 187.942 117.375 181.175 117.375 173.125V172.775H98.3V152.65H112.475C110.258 144.717 109.15 137.425 109.15 130.775C109.15 122.842 110.9 115.958 114.4 110.125C118.017 104.292 123.033 99.8583 129.45 96.825C135.867 93.7917 143.217 92.275 151.5 92.275C165.033 92.275 175.417 95.95 182.65 103.3C189.883 110.65 193.733 120.217 194.2 132H166.725C166.492 127.333 165.208 123.658 162.875 120.975C160.542 118.175 156.983 116.775 152.2 116.775C147.533 116.775 143.917 118.233 141.35 121.15C138.783 123.95 137.5 128.15 137.5 133.75C137.5 136.433 137.792 139.175 138.375 141.975C139.075 144.775 140.067 148.333 141.35 152.65H173.025V172.775H145.725V173.3C145.725 177.85 144.792 182.575 142.925 187.475C141.058 192.375 138.142 196.633 134.175 200.25H194.9Z" fill="#14B8A6"/>
<path d="M356.194 163.264C356.194 148.149 359.464 134.706 366.004 122.934C372.544 111.017 381.627 101.788 393.254 95.248C405.026 88.5627 418.324 85.22 433.148 85.22C451.315 85.22 466.865 90.016 479.8 99.608C492.735 109.2 501.382 122.28 505.742 138.848H464.758C461.706 132.453 457.346 127.585 451.678 124.242C446.155 120.899 439.833 119.228 432.712 119.228C421.231 119.228 411.929 123.225 404.808 131.218C397.687 139.211 394.126 149.893 394.126 163.264C394.126 176.635 397.687 187.317 404.808 195.31C411.929 203.303 421.231 207.3 432.712 207.3C439.833 207.3 446.155 205.629 451.678 202.286C457.346 198.943 461.706 194.075 464.758 187.68H505.742C501.382 204.248 492.735 217.328 479.8 226.92C466.865 236.367 451.315 241.09 433.148 241.09C418.324 241.09 405.026 237.82 393.254 231.28C381.627 224.595 372.544 215.366 366.004 203.594C359.464 191.822 356.194 178.379 356.194 163.264ZM521.159 178.96C521.159 166.461 523.484 155.489 528.135 146.042C532.931 136.595 539.398 129.329 547.537 124.242C555.675 119.155 564.759 116.612 574.787 116.612C583.361 116.612 590.846 118.356 597.241 121.844C603.781 125.332 608.795 129.91 612.283 135.578V118.356H649.561V240H612.283V222.778C608.649 228.446 603.563 233.024 597.023 236.512C590.628 240 583.143 241.744 574.569 241.744C564.686 241.744 555.675 239.201 547.537 234.114C539.398 228.882 532.931 221.543 528.135 212.096C523.484 202.504 521.159 191.459 521.159 178.96ZM612.283 179.178C612.283 169.877 609.667 162.537 604.435 157.16C599.348 151.783 593.099 149.094 585.687 149.094C578.275 149.094 571.953 151.783 566.721 157.16C561.634 162.392 559.091 169.659 559.091 178.96C559.091 188.261 561.634 195.673 566.721 201.196C571.953 206.573 578.275 209.262 585.687 209.262C593.099 209.262 599.348 206.573 604.435 201.196C609.667 195.819 612.283 188.479 612.283 179.178ZM726.016 241.744C715.406 241.744 705.96 239.927 697.676 236.294C689.392 232.661 682.852 227.719 678.056 221.47C673.26 215.075 670.571 207.954 669.99 200.106H706.832C707.268 204.321 709.23 207.736 712.718 210.352C716.206 212.968 720.493 214.276 725.58 214.276C730.23 214.276 733.791 213.404 736.262 211.66C738.878 209.771 740.186 207.373 740.186 204.466C740.186 200.978 738.369 198.435 734.736 196.836C731.102 195.092 725.216 193.203 717.078 191.168C708.358 189.133 701.091 187.026 695.278 184.846C689.464 182.521 684.45 178.96 680.236 174.164C676.021 169.223 673.914 162.61 673.914 154.326C673.914 147.35 675.803 141.028 679.582 135.36C683.506 129.547 689.174 124.969 696.586 121.626C704.143 118.283 713.081 116.612 723.4 116.612C738.66 116.612 750.65 120.391 759.37 127.948C768.235 135.505 773.322 145.533 774.63 158.032H740.186C739.604 153.817 737.715 150.475 734.518 148.004C731.466 145.533 727.396 144.298 722.31 144.298C717.95 144.298 714.607 145.17 712.282 146.914C709.956 148.513 708.794 150.765 708.794 153.672C708.794 157.16 710.61 159.776 714.244 161.52C718.022 163.264 723.836 165.008 731.684 166.752C740.694 169.077 748.034 171.403 753.702 173.728C759.37 175.908 764.311 179.541 768.526 184.628C772.886 189.569 775.138 196.255 775.284 204.684C775.284 211.805 773.249 218.2 769.18 223.868C765.256 229.391 759.515 233.751 751.958 236.948C744.546 240.145 735.898 241.744 726.016 241.744ZM872.864 117.048C886.816 117.048 898.007 121.699 906.436 131C914.866 140.156 919.08 152.8 919.08 168.932V240H882.02V173.946C882.02 165.807 879.913 159.485 875.698 154.98C871.484 150.475 865.816 148.222 858.694 148.222C851.573 148.222 845.905 150.475 841.69 154.98C837.476 159.485 835.368 165.807 835.368 173.946V240H798.09V78.68H835.368V134.706C839.147 129.329 844.306 125.041 850.846 121.844C857.386 118.647 864.726 117.048 872.864 117.048ZM1012.78 208.39V240H993.817C980.301 240 969.764 236.73 962.207 230.19C954.649 223.505 950.871 212.677 950.871 197.708V149.312H936.047V118.356H950.871V88.708H988.149V118.356H1012.56V149.312H988.149V198.144C988.149 201.777 989.021 204.393 990.765 205.992C992.509 207.591 995.415 208.39 999.485 208.39H1012.78ZM1070.83 138.63C1075.19 131.945 1080.64 126.713 1087.18 122.934C1093.72 119.01 1100.98 117.048 1108.98 117.048V156.506H1098.73C1089.43 156.506 1082.45 158.541 1077.8 162.61C1073.15 166.534 1070.83 173.51 1070.83 183.538V240H1033.55V118.356H1070.83V138.63ZM1119.38 178.96C1119.38 166.461 1121.71 155.489 1126.36 146.042C1131.15 136.595 1137.62 129.329 1145.76 124.242C1153.9 119.155 1162.98 116.612 1173.01 116.612C1181.58 116.612 1189.07 118.356 1195.46 121.844C1202 125.332 1207.02 129.91 1210.51 135.578V118.356H1247.78V240H1210.51V222.778C1206.87 228.446 1201.79 233.024 1195.25 236.512C1188.85 240 1181.37 241.744 1172.79 241.744C1162.91 241.744 1153.9 239.201 1145.76 234.114C1137.62 228.882 1131.15 221.543 1126.36 212.096C1121.71 202.504 1119.38 191.459 1119.38 178.96ZM1210.51 179.178C1210.51 169.877 1207.89 162.537 1202.66 157.16C1197.57 151.783 1191.32 149.094 1183.91 149.094C1176.5 149.094 1170.18 151.783 1164.94 157.16C1159.86 162.392 1157.31 169.659 1157.31 178.96C1157.31 188.261 1159.86 195.673 1164.94 201.196C1170.18 206.573 1176.5 209.262 1183.91 209.262C1191.32 209.262 1197.57 206.573 1202.66 201.196C1207.89 195.819 1210.51 188.479 1210.51 179.178ZM1267.34 179.396C1267.34 167.333 1269.81 156.579 1274.75 147.132C1279.84 137.685 1286.6 130.346 1295.03 125.114C1303.6 119.737 1312.9 117.048 1322.93 117.048C1330.63 117.048 1337.54 118.429 1343.64 121.19C1349.74 123.806 1354.69 127.512 1358.46 132.308V118.356H1395.74V297.988H1358.46V224.74C1354.25 229.827 1349.09 233.896 1342.99 236.948C1337.03 240 1330.2 241.526 1322.49 241.526C1312.61 241.526 1303.46 238.91 1295.03 233.678C1286.6 228.446 1279.84 221.107 1274.75 211.66C1269.81 202.213 1267.34 191.459 1267.34 179.396ZM1358.46 179.178C1358.46 172.638 1357.16 167.188 1354.54 162.828C1352.07 158.323 1348.8 154.98 1344.73 152.8C1340.66 150.475 1336.37 149.312 1331.87 149.312C1327.51 149.312 1323.29 150.475 1319.22 152.8C1315.15 154.98 1311.81 158.323 1309.2 162.828C1306.58 167.333 1305.27 172.856 1305.27 179.396C1305.27 185.936 1306.58 191.459 1309.2 195.964C1311.81 200.324 1315.15 203.667 1319.22 205.992C1323.29 208.172 1327.51 209.262 1331.87 209.262C1336.23 209.262 1340.44 208.172 1344.51 205.992C1348.73 203.667 1352.07 200.251 1354.54 195.746C1357.16 191.241 1358.46 185.718 1358.46 179.178Z" fill="#14B8A6"/>
<path d="M150 10C232.843 10 300 77.1573 300 160C300 242.843 232.843 310 150 310C67.1573 310 0 242.843 0 160C0 77.1573 67.1573 10 150 10ZM149.5 53C90.6817 53 43 100.906 43 160C43 219.094 90.6817 267 149.5 267C208.318 267 256 219.094 256 160C256 100.906 208.318 53 149.5 53Z" fill="#14B8A6"/>
</svg>
