<svg width="302" height="300" viewBox="0 0 302 300" fill="none" xmlns="http://www.w3.org/2000/svg">
<path d="M300 295.5L260.5 244L222.727 274.154L226 284.5L232.206 291.149C232.725 291.705 233.391 292.101 234.126 292.292L246.5 295.5H300Z" fill="#14B8A6" stroke="#14B8A6"/>
<path d="M154.725 82.325C167.208 82.325 177.183 85.5917 184.65 92.125C192.233 98.6583 196.025 107.875 196.025 119.775C196.025 130.742 192.408 139.317 185.175 145.5C178.058 151.567 168.608 154.658 156.825 154.775L155.95 167.9H129.7L128.825 135.35H139.325C148.308 135.35 155.133 134.242 159.8 132.025C164.583 129.808 166.975 125.783 166.975 119.95C166.975 115.867 165.867 112.658 163.65 110.325C161.433 107.992 158.342 106.825 154.375 106.825C150.175 106.825 146.908 108.05 144.575 110.5C142.242 112.833 141.075 116.042 141.075 120.125H112.9C112.667 113.008 114.125 106.592 117.275 100.875C120.542 95.1583 125.325 90.6667 131.625 87.4C138.042 84.0167 145.742 82.325 154.725 82.325ZM143.175 213.4C137.925 213.4 133.608 211.883 130.225 208.85C126.958 205.7 125.325 201.85 125.325 197.3C125.325 192.633 126.958 188.725 130.225 185.575C133.608 182.425 137.925 180.85 143.175 180.85C148.308 180.85 152.508 182.425 155.775 185.575C159.158 188.725 160.85 192.633 160.85 197.3C160.85 201.85 159.158 205.7 155.775 208.85C152.508 211.883 148.308 213.4 143.175 213.4Z" fill="#14B8A6"/>
<path d="M150 0C232.843 0 300 67.1573 300 150C300 232.843 232.843 300 150 300C67.1573 300 0 232.843 0 150C0 67.1573 67.1573 0 150 0ZM149.5 43C90.6817 43 43 90.9055 43 150C43 209.094 90.6817 257 149.5 257C208.318 257 256 209.094 256 150C256 90.9055 208.318 43 149.5 43Z" fill="#14B8A6"/>
</svg>
